<?xml version="1.0" encoding="UTF-8" standalone="no"?>
<!DOCTYPE svg PUBLIC "-//W3C//DTD SVG 1.1//EN" "http://www.w3.org/Graphics/SVG/1.1/DTD/svg11.dtd">
<svg width="100%" height="100%" viewBox="0 0 4624 1701" version="1.1" xmlns="http://www.w3.org/2000/svg" xmlns:xlink="http://www.w3.org/1999/xlink" xml:space="preserve" xmlns:serif="http://www.serif.com/" style="fill-rule:evenodd;clip-rule:evenodd;stroke-linejoin:round;stroke-miterlimit:2;">
    <g transform="matrix(1,0,0,1,-124,-4414)">
        <g id="Mesa-de-trabajo4" serif:id="Mesa de trabajo4" transform="matrix(1,0,0,1,-0.392677,-0.641261)">
            <rect x="124.393" y="4414.641" width="4623.878" height="1700.731" style="fill:none;"/>
            <g transform="matrix(12.585535,0,0,12.585535,-9610.718823,-52196.667395)">
                <path d="M926.396,4584.818L934.096,4584.818L934.096,4568.818L954.696,4568.818L954.696,4584.818L962.396,4584.818L962.396,4546.268L954.696,4546.268L954.696,4562.318L934.096,4562.318L934.096,4546.268L926.396,4546.268L926.396,4584.818Z" style="fill:rgb(242,237,188);fill-rule:nonzero;"/>
                <path d="M985.896,4585.818C998.996,4585.818 1006.396,4576.718 1006.396,4565.518C1006.396,4554.318 998.996,4545.218 985.896,4545.218C972.796,4545.218 965.396,4554.318 965.396,4565.518C965.396,4576.718 972.796,4585.818 985.896,4585.818ZM973.296,4565.518C973.296,4557.068 978.046,4551.718 985.896,4551.718C993.746,4551.718 998.496,4557.068 998.496,4565.518C998.496,4573.968 993.746,4579.318 985.896,4579.318C978.046,4579.318 973.296,4573.968 973.296,4565.518Z" style="fill:rgb(242,237,188);fill-rule:nonzero;"/>
                <path d="M1009.396,4584.818L1017.196,4584.818L1017.196,4573.868L1023.496,4573.868L1027.396,4579.218C1032.346,4586.018 1038.396,4588.668 1045.696,4583.318L1041.946,4578.168C1038.546,4580.568 1036.096,4578.418 1033.296,4574.518L1032.146,4572.918C1038.646,4570.818 1040.596,4565.318 1040.596,4559.468C1040.596,4552.368 1035.146,4546.268 1025.346,4546.268L1009.396,4546.268L1009.396,4584.818ZM1024.746,4567.418L1017.196,4567.418L1017.196,4552.668L1024.746,4552.668C1029.846,4552.668 1032.796,4555.368 1032.796,4559.468C1032.796,4562.768 1031.646,4565.918 1027.846,4567.018C1026.946,4567.268 1025.946,4567.418 1024.746,4567.418Z" style="fill:rgb(242,237,188);fill-rule:nonzero;"/>
                <path d="M1063.896,4585.818C1074.596,4585.818 1081.646,4579.518 1081.646,4569.368L1081.646,4546.268L1073.946,4546.268L1073.946,4569.118C1073.946,4575.818 1069.796,4579.168 1063.896,4579.168C1057.646,4579.168 1053.796,4575.668 1053.796,4569.118L1053.796,4546.268L1045.996,4546.268L1045.996,4569.368C1045.996,4579.418 1052.896,4585.818 1063.896,4585.818Z" style="fill:rgb(242,237,188);fill-rule:nonzero;"/>
                <path d="M1099.996,4585.368C1110.196,4585.368 1115.346,4580.918 1115.346,4573.718C1115.346,4568.018 1112.046,4564.318 1104.796,4562.918L1096.796,4561.468C1093.846,4560.918 1092.446,4559.618 1092.446,4556.968C1092.446,4552.618 1096.646,4552.118 1099.996,4552.118C1103.296,4552.118 1107.446,4552.618 1107.546,4556.818L1115.346,4556.818C1115.096,4549.868 1109.996,4545.618 1099.996,4545.618C1089.796,4545.618 1084.646,4550.068 1084.646,4557.268C1084.646,4562.968 1087.946,4566.668 1095.196,4568.068L1103.196,4569.518C1106.146,4570.068 1107.546,4571.368 1107.546,4574.018C1107.546,4578.368 1103.346,4578.868 1099.996,4578.868C1096.696,4578.868 1092.546,4578.368 1092.446,4574.168L1084.646,4574.168C1084.896,4581.118 1089.996,4585.368 1099.996,4585.368Z" style="fill:rgb(242,237,188);fill-rule:nonzero;"/>
            </g>
            <g transform="matrix(-2.359384,-0,0,2.359384,2461.017019,4507.867565)">
                <g>
                    <path d="M534.284,415.871C521.829,411.412 436.805,380.977 384.722,345.326C383.11,344.223 450.963,302.348 498.44,288.97C499.272,288.736 499.653,289.819 493.992,298.823C480.359,320.504 480.848,356.884 498.905,381.215C531.154,424.668 557.296,420.013 584.433,415.154C626.293,407.659 642.289,358.6 642.554,357.513C654.903,306.906 624.389,288.65 633.496,290.751C662.762,297.5 690.593,314.37 741.428,342.627C745.222,344.736 741.038,346.083 695.575,371.63C619.607,414.319 607.373,404.981 609.185,411.579C615.945,436.205 709.153,379.691 779.583,351.737C787.196,348.715 808.857,354.132 810.101,355.82C815.834,363.597 803.484,366.933 802.423,367.219C754.459,380.173 749.301,386.329 672.75,427.763C665.745,431.554 674.793,428.296 682.501,426.597C684.209,426.22 685.259,427.454 682.138,448.446C673.886,503.94 673.446,503.704 668.099,559.461C666.65,574.577 663.543,574.5 640.449,581.174C638.17,581.833 638.69,579.585 634.615,442.493C634.536,439.859 631.116,439.46 623.599,440.968C609.224,443.852 528.215,530.231 420.527,567.575C360.735,588.31 321.813,550.431 312.917,535.245C276.925,473.801 341.107,430.852 377.233,450.966C426.141,478.197 392.403,537.327 363.755,518.083C339.379,501.709 386.896,495.726 375.192,478.708C355.932,450.705 307.563,494.231 338.898,529.138C385.268,580.793 481.083,514.465 512.175,493.052C578.196,447.582 585.097,443.157 578.453,442.896C528.56,440.936 496.4,449.246 418.365,407.772C368.838,381.45 314.162,364.392 317.69,361.658C331.5,350.953 350.449,346.979 420.754,386.037C484.286,421.333 524.352,419.714 535.307,417.34C535.486,416.178 535.39,416.163 534.284,415.871Z" style="fill:rgb(242,237,188);"/>
                    <path d="M211.947,338.574C212.721,336.268 212.037,335.406 214.472,335.275C284.333,331.513 310.527,327.989 389.248,287.032C432.094,264.741 531.687,196.891 663.549,250.386C764.106,291.181 770.757,326.462 904.488,334.636C918.374,335.485 919.194,356.778 909.49,357.001C820.921,359.037 732.962,308.83 706.357,294.779C462.578,166.036 413.005,371.696 210.399,356.765C208.942,356.658 209.16,355.844 211.947,338.574Z" style="fill:rgb(242,237,188);"/>
                    <path d="M607.567,194.151C435.159,168.704 373.737,298.82 229.496,301.263C219.43,301.433 224.437,296.122 227.6,286.532C230.432,277.944 234.702,279.826 268.457,274.227C363.686,258.429 425.094,177.929 535.525,169.81C713.96,156.692 722.242,259.706 892.521,278.369C901.911,279.398 904.473,297.29 904.778,298.503C905.705,302.198 865.438,297.151 848.586,293.117C732.958,265.435 723.856,218.384 607.567,194.151Z" style="fill:rgb(242,237,188);"/>
                    <g transform="matrix(1,0,0,1,34.903908,1.349804)">
                        <path d="M570.763,318.472C570.444,365.963 497.505,343.051 521.926,305.781C532.146,290.183 563.148,285.703 570.763,318.472Z" style="fill:rgb(242,237,188);"/>
                    </g>
                    <path d="M602.065,81.429C602.574,78.673 602.092,64.66 612.488,63.324C616.368,62.826 622.123,66.245 624.194,70.655C627.044,76.723 615.333,128.471 614.211,133.431C612.623,140.446 609.726,144.919 605.493,144.642C589.181,143.572 594.943,131.759 602.065,81.429Z" style="fill:rgb(242,237,188);"/>
                    <path d="M763.249,131.349C727.915,181.991 723.153,186.228 717.769,183.042C706.538,176.397 707.874,174.37 708.462,173.479C711.689,168.583 747.686,113.983 750.483,113.43C752.583,113.015 760.327,118.411 763.351,121.632C767.069,125.593 765.153,126.152 763.249,131.349Z" style="fill:rgb(242,237,188);"/>
                    <path d="M666.735,109.59C654.606,142.884 652.598,160.28 635.675,147.297C630.783,143.545 654.867,80.107 655.866,78.788C661.425,71.458 665.867,75.763 673.161,80.947C677.533,84.055 670.076,100.12 666.735,109.59Z" style="fill:rgb(242,237,188);"/>
                    <path d="M698.334,148.401C697.507,149.777 689.581,162.961 685.603,163.914C677.973,165.743 671.282,158.981 673.885,152.642C675.034,149.845 700.379,99.914 702.818,96.743C709.284,88.336 711.857,90.335 719.254,97.746C725.039,103.541 720.8,108.333 698.334,148.401Z" style="fill:rgb(242,237,188);"/>
                    <path d="M503.699,74.494C504.432,68.888 503.576,67.931 508.635,65.811C526.754,58.215 526.029,88.339 527.551,99.493C531.266,126.723 537.37,143.57 522.499,144.18C516.73,144.417 513.27,142.896 503.699,74.494Z" style="fill:rgb(242,237,188);"/>
                    <path d="M553.777,105.493C553.061,81.113 549.888,64.742 561.578,60.795C565.497,59.473 572.467,64.267 573.482,71.502C573.708,73.111 573.643,98.207 573.571,98.509C570.493,111.38 576.047,135.685 568.263,139.079C550.456,146.844 553.875,109.486 553.777,105.493Z" style="fill:rgb(242,237,188);"/>
                    <path d="M489.238,130.584C490.063,133.714 497.9,147.5 482.523,151.656C476.263,153.347 471.97,134.569 454.523,87.491C450.869,77.63 467.704,67.908 473.276,80.6C474.862,84.211 474.906,84.14 489.238,130.584Z" style="fill:rgb(242,237,188);"/>
                    <path d="M796.502,145.498C802.058,150.976 807.617,152.052 800.325,160.342C785.592,177.091 785.572,176.866 770.809,193.765C760.823,205.196 757.535,208.094 746.723,197.315C742.448,193.052 786.236,143.295 791.477,142.95C792.678,142.871 792.592,143.189 796.502,145.498Z" style="fill:rgb(242,237,188);"/>
                    <path d="M421.207,129.66C415.838,119.878 404.412,103.845 410.591,96.572C421.754,83.434 429.909,106.332 431.105,108.694C452.819,151.557 457.73,155.53 450.378,161.336C439.488,169.935 436.294,157.716 421.207,129.66Z" style="fill:rgb(242,237,188);"/>
                    <path d="M390.451,131.533C416.732,172.294 419.554,174.179 415.145,178.079C403.709,188.194 398.645,177.176 375.657,143.39C365.135,127.926 357.484,120.41 375.572,115.816C375.94,115.722 378.134,115.165 380.209,116.849C381.381,117.799 389.662,130.338 390.451,131.533Z" style="fill:rgb(242,237,188);"/>
                    <path d="M356.455,162.54C378.369,187.378 389.011,193.505 375.256,202.058C374.66,202.429 371.078,204.656 366.652,200.331C322.885,157.573 323.008,155.054 325.996,150.895C338.478,133.525 342.254,146.577 356.455,162.54Z" style="fill:rgb(242,237,188);"/>
                    <path d="M824.53,177.029C846.145,185.972 831.243,195.434 808.122,217.106C796.869,227.655 794.36,226.82 781.751,218.079C778.388,215.747 782.408,215.179 817.408,181.397C820.557,178.358 820.221,177.96 824.53,177.029Z" style="fill:rgb(242,237,188);"/>
                    <path d="M341.378,210.626C347.788,217.487 345.643,219.907 337.302,224.139C330.096,227.797 290.59,192.183 291.874,187.573C292.682,184.675 298.844,176.575 304.46,176.805C305.596,176.852 305.906,176.784 341.378,210.626Z" style="fill:rgb(242,237,188);"/>
                    <path d="M289.485,244.744C284.929,243.46 284.927,243.546 284.565,243.357C261.782,231.473 259.801,225.033 268.818,216.859C278.002,208.533 303.826,235.528 303.145,237.325C301.009,242.962 290.714,244.554 289.485,244.744Z" style="fill:rgb(242,237,188);"/>
                    <path d="M840.507,244.809C820.49,240.544 826.82,233.842 827.886,232.957C852.075,212.868 853.715,213.591 855.5,215.5C861.698,222.132 867.529,227.254 859.224,234.207C848.628,243.078 845.906,243.56 840.507,244.809Z" style="fill:rgb(242,237,188);"/>
                    <path d="M534.284,415.871C535.39,416.163 535.486,416.178 535.307,417.34C534.966,416.85 534.625,416.361 534.284,415.871Z" style="fill:rgb(242,237,188);"/>
                </g>
            </g>
        </g>
    </g>
</svg>
