<?xml version="1.0" encoding="UTF-8" standalone="no"?>
<!DOCTYPE svg PUBLIC "-//W3C//DTD SVG 1.1//EN" "http://www.w3.org/Graphics/SVG/1.1/DTD/svg11.dtd">
<svg width="100%" height="100%" viewBox="0 0 2783 2040" version="1.1" xmlns="http://www.w3.org/2000/svg" xmlns:xlink="http://www.w3.org/1999/xlink" xml:space="preserve" xmlns:serif="http://www.serif.com/" style="fill-rule:evenodd;clip-rule:evenodd;stroke-linejoin:round;stroke-miterlimit:2;">
    <g transform="matrix(1,0,0,1,-2911.666661,-0)">
        <g id="Mesa-de-trabajo2" serif:id="Mesa de trabajo2" transform="matrix(0.558095,-0.003728,0.003849,0.57627,11.329366,37.863876)">
            <rect x="5196.85" y="0" width="4960.63" height="3507.874" style="fill:none;"/>
            <g transform="matrix(1.383153,0.008947,-0.009238,1.33953,-6592.270664,-2873.61147)">
                <path d="M9035.093,3282.474C9038.386,3268.901 9050.84,3221.339 9069.578,3194.64C9092.734,3161.645 9125.311,3141.227 9163.427,3137.049C9177.833,3135.47 9191.888,3133.705 9205.61,3131.764C9189.976,3112.091 9183.266,3092.689 9180.268,3075.324C9173.336,3035.173 9192.393,2988.947 9232.827,2945.686C9245.823,2931.782 9260.303,2922.023 9278.499,2916.267C9278.161,2905.85 9279.209,2895.799 9281.312,2886.175C9288.283,2854.267 9309.709,2813.645 9376.628,2785.96C9380.846,2784.215 9385.163,2782.771 9389.546,2781.632C9390.039,2778.31 9390.638,2775.149 9391.277,2772.153C9395.176,2753.84 9403.361,2736.669 9417.13,2720.649C9423.393,2713.361 9433.487,2705.927 9444.061,2695.501C9449.805,2689.837 9456.222,2684.899 9463.168,2680.796C9509.086,2653.671 9518.766,2655.612 9530.84,2657.469C9535.123,2645.495 9542.488,2630.989 9558.505,2613.924C9574.66,2596.714 9611.414,2570.802 9632.483,2562.306C9658.394,2551.858 9680.604,2552.87 9694.6,2555.557C9700.095,2545.858 9707.236,2536.54 9716.392,2527.366C9766.102,2477.562 9807.699,2471.447 9839.597,2477.369C9847.198,2478.781 9855.602,2481.055 9864.58,2484.976C9872.21,2473.737 9881.639,2464.592 9891.909,2457.293C9940.14,2423.011 9982.588,2412.434 10017.277,2421.144C10027.308,2423.663 10037.92,2427.516 10048.715,2433.805C10062.97,2415.694 10081.95,2400.216 10102.164,2390.46C10127.513,2378.224 10154.145,2374.765 10176.046,2377.58C10205.061,2381.309 10227.881,2392.193 10245.724,2407.628C10259.862,2393.457 10275.919,2382.795 10291.467,2376.446C10321.472,2364.195 10351.091,2364.993 10374.895,2373.029C10398.434,2380.977 10417.554,2392.652 10432.479,2408.504C10440.534,2402.184 10449.173,2396.946 10458.261,2392.791C10486.916,2379.688 10523.074,2374.187 10568.517,2393.237C10598.497,2405.804 10612.374,2419.903 10621.904,2432.639C10628.494,2429.026 10635.235,2426.083 10642.002,2423.704C10685.18,2408.527 10735.346,2418.359 10771.482,2447.551C10785.881,2459.183 10797.705,2473.276 10806.309,2488.957C10824.695,2481.369 10844.253,2478.537 10864.314,2480.556C10890.587,2483.201 10922.03,2493.823 10951.952,2529.04C10960.819,2539.476 10967.894,2551.067 10972.929,2563.697C10998.928,2558.613 11019.644,2563.961 11024.719,2565.25C11077.472,2578.647 11103.056,2602.833 11116.77,2622.663C11124.295,2633.543 11129.904,2644.912 11133.445,2656.883C11142.097,2656.586 11150.809,2657.263 11159.589,2658.821C11185.13,2663.352 11220.239,2677.859 11255.739,2727.262C11267.765,2743.998 11275.009,2760.693 11277.4,2780.452C11298.543,2785.041 11319.816,2795.246 11338.348,2810.731C11367.306,2834.929 11386.642,2871.533 11391.218,2887.962C11393.54,2896.299 11395.274,2906.242 11395.023,2917.591C11413.203,2922.542 11429.559,2931.786 11443.865,2944.754C11488.695,2985.393 11498.964,3028.363 11492.252,3067.814C11489.286,3085.242 11480.049,3108.175 11457.52,3133.193C11498.409,3139.612 11521.74,3143.301 11536.151,3148.549C11581.619,3165.103 11601.729,3187.02 11616.933,3233.118C11627.806,3266.085 11636.557,3292.523 11636.292,3307.72C11635.998,3324.616 11632.326,3339.563 11625.817,3352.894C11626.754,3353.474 11627.657,3354.05 11628.53,3354.618C11649.862,3368.477 11673.897,3423.108 11673.897,3423.108C11673.897,3423.108 11672.917,3419.009 11672.064,3416.467C11673.782,3421.586 11675.078,3426.837 11675.939,3432.168C11683.327,3477.95 11685.729,3497.683 11685.798,3506.146C11686.215,3557.354 11662.957,3576.091 11648.554,3587.907C11633.574,3600.197 11615.475,3608.856 11591.175,3610.646C11478.371,3618.959 11377.909,3609.73 11285.741,3589.26C11279.752,3597.378 11271.871,3605.473 11261.522,3613.151C11236.845,3631.46 11058.998,3692.703 10895.58,3779.555C10751.641,3856.055 10648.874,3888.475 10559.543,3902.434C10564.247,3905.68 10569.015,3908.967 10573.845,3912.293C10622.148,3945.56 10718.41,4013.526 10822.235,4055.639C10807.366,4013.975 10803.318,3966.353 10815.722,3918.789C10830.769,3861.086 10869.079,3801.777 10946.506,3758.668C11004.433,3726.415 11074.755,3720.34 11141.755,3739.112C11235.089,3765.262 11320.091,3839.853 11348.173,3943.355C11367.271,4013.746 11361.638,4099.245 11306.959,4192.589C11265.627,4263.149 11087.06,4446.53 10809.245,4350.19C10536.158,4255.489 10309.414,4075.426 10179.388,3971.13C10171.001,4245.29 10167.982,4310.826 10164.297,4325.467C10150.046,4382.095 10117.17,4391.984 10098.774,4398.36C10080.215,4404.792 10059.779,4406.307 10037.264,4399.8C9958.921,4377.159 9925.401,4358.779 9906.037,4336.821C9887.134,4315.387 9873.501,4287.708 9868.702,4237.653C9850.059,4043.238 9848.501,4044.062 9819.73,3850.566C9816.759,3830.583 9814.84,3814.149 9813.663,3800.657C9638.458,3703.944 9607.322,3682.4 9466.728,3644.428C9462.099,3643.178 9433.225,3634.487 9411.392,3618.424C9397.518,3608.216 9386.138,3595.854 9377.747,3581.916C9292.295,3601.705 9202.182,3613.793 9111.971,3611.719C9047.363,3610.233 8998.968,3563.472 8993.122,3493.987C8989.199,3447.362 9008.416,3394.716 9049.322,3363.261C9046.112,3358.396 9043.571,3353.635 9041.521,3349.251L9032.447,3315.329L9035.093,3282.474ZM9630.878,2680.496C9755.703,2859.402 9772.524,2874.368 9791.546,2863.113C9831.221,2839.639 9826.499,2832.478 9824.424,2829.329C9813.023,2812.036 9685.859,2619.147 9675.976,2617.195C9668.558,2615.73 9641.2,2634.791 9630.519,2646.169C9617.383,2660.164 9624.153,2662.138 9630.878,2680.496ZM10187.569,3346.316C10188.696,3514.085 10446.367,3433.146 10360.094,3301.482C10323.989,3246.38 10214.471,3230.551 10187.569,3346.316ZM10200.292,2504.146C10198.494,2494.409 10200.197,2444.907 10163.471,2440.187C10149.765,2438.425 10129.433,2450.505 10122.117,2466.084C10112.05,2487.519 10153.42,2670.331 10157.386,2687.853C10162.994,2712.636 10173.229,2728.438 10188.181,2727.457C10245.809,2723.678 10225.452,2681.947 10200.292,2504.146ZM9971.834,2603.63C10014.68,2721.247 10021.774,2782.703 10081.559,2736.839C10098.839,2723.582 10013.76,2499.475 10010.228,2494.817C9990.591,2468.922 9974.899,2484.13 9949.132,2502.444C9933.685,2513.423 9960.029,2570.175 9971.834,2603.63ZM10439.743,3685.627C10483.743,3669.876 10784.105,3562.356 10968.099,3436.414C10973.794,3432.517 10734.089,3284.586 10566.369,3237.326C10563.429,3236.497 10562.082,3240.324 10582.082,3272.131C10630.244,3348.726 10628.516,3477.243 10564.724,3563.198C10450.798,3716.704 10358.446,3700.259 10262.582,3683.096C10114.703,3656.619 10058.193,3483.307 10057.257,3479.468C10013.632,3300.687 10121.43,3236.195 10089.255,3243.615C9985.867,3267.46 9887.551,3327.055 9707.964,3426.881C9694.561,3434.33 9709.344,3439.087 9869.951,3529.338C10138.321,3680.144 10181.54,3647.156 10175.141,3670.465C10151.258,3757.461 9821.983,3557.816 9573.175,3459.06C9546.281,3448.385 9469.76,3467.523 9465.365,3473.485C9445.112,3500.961 9488.739,3512.744 9492.489,3513.756C9661.931,3559.519 9680.151,3581.266 9950.585,3727.638C9975.329,3741.031 9943.367,3729.52 9916.134,3723.518C9910.103,3722.189 9906.393,3726.547 9917.419,3800.705C9946.569,3996.748 9948.126,3995.915 9967.014,4192.89C9972.134,4246.288 9983.11,4246.017 10064.694,4269.595C10072.743,4271.921 10070.908,4263.979 10085.304,3779.675C10085.581,3770.371 10097.664,3768.962 10124.22,3774.289C10175.003,3784.476 10461.182,4089.628 10841.612,4221.553C11052.84,4294.802 11190.339,4160.987 11221.765,4107.339C11348.915,3890.276 11122.178,3738.552 10994.557,3809.608C10821.779,3905.807 10940.966,4114.696 11042.169,4046.713C11128.282,3988.866 10960.419,3967.73 11001.767,3907.611C11069.805,3808.686 11240.68,3962.451 11129.983,4085.766C10966.172,4268.248 10627.686,4033.931 10517.847,3958.284C10284.613,3797.654 10260.235,3782.023 10283.707,3781.101C10459.962,3774.176 10573.575,3803.53 10849.249,3657.018C11024.214,3564.029 11217.366,3503.769 11204.902,3494.108C11156.116,3456.293 11089.176,3442.253 10840.811,3580.233C10616.37,3704.922 10474.829,3699.204 10436.128,3690.819L10439.743,3685.627ZM10180.856,2902.357C10789.922,2812.463 11006.906,3272.121 11516.465,3280.752C11552.027,3281.354 11534.339,3262.59 11523.165,3228.711C11513.159,3198.374 11498.074,3205.024 11378.829,3185.242C11042.413,3129.434 10825.477,2845.051 10435.358,2816.37C9805.002,2770.027 9775.743,3133.944 9174.199,3199.873C9141.027,3203.509 9131.975,3266.718 9130.9,3271.001C9127.624,3284.055 9269.876,3266.228 9329.407,3251.976C9737.888,3154.184 9770.042,2987.966 10180.856,2902.357ZM11578.463,3412.563C11575.727,3404.414 11578.142,3401.37 11569.541,3400.906C11322.743,3387.615 11230.209,3375.167 10952.11,3230.48C10800.75,3151.731 10448.917,2912.037 9983.088,3101.019C9627.85,3245.135 9604.355,3369.774 9131.924,3398.651C9082.87,3401.649 9079.973,3476.869 9114.254,3477.657C9427.14,3484.852 9737.873,3307.483 9831.86,3257.847C10693.057,2803.038 10868.182,3529.57 11583.931,3476.826C11589.077,3476.447 11588.308,3473.571 11578.463,3412.563ZM11121.219,2960.561C11098.576,2984.796 11106.154,2993.345 11135.62,3008.298C11161.078,3021.218 11300.639,2895.407 11296.103,2879.122C11293.251,2868.883 11271.48,2840.266 11251.642,2841.081C11247.628,2841.246 11246.534,2841.005 11121.219,2960.561ZM10370.881,2589.155C10373.41,2503.03 10384.618,2445.196 10343.319,2431.253C10329.478,2426.58 10304.852,2443.517 10301.267,2469.078C10300.47,2474.762 10300.698,2563.416 10300.953,2564.484C10311.828,2609.953 10292.207,2695.814 10319.703,2707.804C10382.611,2735.236 10370.534,2603.262 10370.881,2589.155ZM9357.948,3081.317C9428.664,3066.252 9406.299,3042.576 9402.535,3039.45C9317.081,2968.479 9311.288,2971.033 9304.984,2977.779C9283.086,3001.207 9262.487,3019.303 9291.827,3043.865C9329.259,3075.203 9338.876,3076.905 9357.948,3081.317ZM9860.203,2740.739C9863.125,2745.6 9891.124,2792.172 9905.177,2795.54C9932.132,2802.001 9955.77,2778.112 9946.574,2755.719C9942.516,2745.837 9852.979,2569.449 9844.364,2558.247C9821.521,2528.545 9812.43,2535.608 9786.298,2561.789C9765.864,2582.262 9780.837,2599.189 9860.203,2740.739ZM10839.207,2674.531C10858.178,2639.975 10898.54,2583.335 10876.71,2557.642C10837.275,2511.229 10808.469,2592.12 10804.242,2600.465C10727.535,2751.886 10710.183,2765.922 10736.157,2786.432C10774.628,2816.812 10785.913,2773.643 10839.207,2674.531ZM10547.791,2479.647C10545.202,2459.841 10548.222,2456.461 10530.354,2448.971C10466.342,2422.138 10468.904,2528.556 10463.528,2567.96C10450.404,2664.154 10428.839,2723.672 10481.374,2725.828C10501.756,2726.664 10513.977,2721.29 10547.791,2479.647ZM10947.86,2681.148C10855.017,2825.143 10845.047,2831.804 10860.623,2845.58C10901.026,2881.315 10918.915,2842.39 11000.125,2723.033C11037.294,2668.405 11064.324,2641.852 11000.425,2625.624C10999.124,2625.293 10991.374,2623.325 10984.041,2629.273C10979.902,2632.631 10950.649,2676.926 10947.86,2681.148ZM9513.406,2730.481C9493.779,2749.834 9474.141,2753.634 9499.9,2782.921C9551.946,2842.092 9552.016,2841.295 9604.171,2900.996C9639.449,2941.379 9651.063,2951.616 9689.258,2913.536C9704.363,2898.477 9549.671,2722.7 9531.157,2721.481C9526.914,2721.202 9527.216,2722.323 9513.406,2730.481ZM11067.957,2790.687C10990.541,2878.432 10952.948,2900.077 11001.54,2930.291C11003.646,2931.6 11016.299,2939.468 11031.935,2924.192C11186.551,2773.14 11186.115,2764.239 11175.559,2749.55C11131.464,2688.186 11118.126,2734.293 11067.957,2790.687ZM9414.391,2841.872C9338.031,2873.463 9390.676,2906.889 9472.356,2983.453C9512.11,3020.717 9520.973,3017.767 9565.515,2986.887C9577.396,2978.65 9563.195,2976.645 9439.55,2857.304C9428.426,2846.566 9429.615,2845.16 9414.391,2841.872ZM11304.544,3081.087C11320.637,3076.552 11320.643,3076.857 11321.924,3076.189C11402.41,3034.205 11409.408,3011.456 11377.554,2982.579C11345.109,2953.167 11253.881,3048.532 11256.286,3054.878C11263.831,3074.794 11300.202,3080.416 11304.544,3081.087ZM10598.875,2677.795C10595.962,2688.854 10568.277,2737.553 10622.598,2752.235C10644.713,2758.212 10659.879,2691.874 10721.514,2525.56C10734.423,2490.726 10674.947,2456.38 10655.264,2501.216C10649.664,2513.972 10649.508,2513.724 10598.875,2677.795Z" style="fill:rgb(65,49,23);"/>
            </g>
        </g>
    </g>
</svg>
